PathFileType	4	(X/Y/Z)	c:/Users/goper/Files/vsCode/490R/osim_files/C11/C11_Slow_04.trc
DataRate	CameraRate	NumFrames	NumMarkers	Units                	OrigDataRate	OrigDataStartFrame	OrigNumFrames
120.00	120.00	9	36	mm	120.0	1197	1367
                Frame#	Time	LPSIS			LASIS			LTH1			LTH2			LTH3			LTH4			LLFE			LMFE			LSH1			LSH2			LSH3			LSH4			LLMAL			LMMAL			LCAL			LMTP5			LTOE			LMTP1			RPSIS			RASIS			RTH1			RTH2			RTH3			RTH4			RLFE			RMFE			RSH1			RSH2			RSH3			RSH4			RLMAL			RMMAL			RCAL			RMTP1			RTOE			RMTP5		
		X1	Y1	Z1	X2	Y2	Z2	X3	Y3	Z3	X4	Y4	Z4	X5	Y5	Z5	X6	Y6	Z6	X7	Y7	Z7	X8	Y8	Z8	X9	Y9	Z9	X10	Y10	Z10	X11	Y11	Z11	X12	Y12	Z12	X13	Y13	Z13	X14	Y14	Z14	X15	Y15	Z15	X16	Y16	Z16	X17	Y17	Z17	X18	Y18	Z18	X19	Y19	Z19	X20	Y20	Z20	X21	Y21	Z21	X22	Y22	Z22	X23	Y23	Z23	X24	Y24	Z24	X25	Y25	Z25	X26	Y26	Z26	X27	Y27	Z27	X28	Y28	Z28	X29	Y29	Z29	X30	Y30	Z30	X31	Y31	Z31	X32	Y32	Z32	X33	Y33	Z33	X34	Y34	Z34	X35	Y35	Z35	X36	Y36	Z36

1197	9.96667	-3549.98828	1002.35260	246.71158	-3735.04883	1019.42920	298.55237	-3688.77637	621.26923	334.39972	-3701.80347	574.38580	329.26538	-3749.99365	627.94366	341.42438	-3757.55176	585.48639	335.17294	0.00000	0.00000	0.00000	-3733.82544	509.56198	325.94580	-3683.67651	407.71585	339.08301	-3676.12524	362.89954	330.35797	-3745.37427	401.69339	335.31601	-3731.18311	354.25806	329.32230	-3666.69043	102.13428	259.68124	-3701.15405	125.13018	170.33986	-3608.87012	69.67841	202.65987	-3778.02710	49.77671	290.83047	-3856.41797	70.49032	226.40874	-3816.65137	57.70497	179.38579	-3546.00195	1009.27606	163.85434	-3702.36060	993.90643	67.34608	-3794.86230	658.00061	18.42922	-3803.46997	615.64246	17.89267	-3733.15112	636.35516	21.68746	-3752.85693	597.13721	24.92723	-3799.37451	530.39038	32.30246	-3795.24316	513.50049	144.79889	-3695.42065	491.91895	30.06688	0.00000	0.00000	0.00000	-3739.49683	450.02283	25.42326	0.00000	0.00000	0.00000	0.00000	0.00000	0.00000	-3523.10986	242.58580	164.58972	-3425.48706	281.92273	144.25581	-3557.50098	111.88930	133.28375	-3563.71973	124.05560	83.17292	-3503.77661	136.56238	32.11671
1198	9.97500	-3555.89355	1003.23895	245.80971	-3740.67432	1020.33124	299.02286	-3690.45801	621.83081	334.52457	-3703.01831	574.93628	329.60760	-3751.60645	627.91040	341.96326	-3759.06982	585.58521	336.00168	0.00000	0.00000	0.00000	-3734.37549	509.43518	326.49304	-3684.07251	407.72141	339.54599	-3676.39575	362.90997	330.76688	-3745.78125	401.58716	335.82907	-3731.42114	354.13547	329.81757	-3666.91943	102.19667	259.62619	-3701.16821	125.20947	170.44167	-3608.79541	69.73061	202.69595	-3777.95239	49.68007	290.88303	-3856.36084	70.50287	226.45677	-3816.62720	57.72562	179.43723	-3552.17017	1010.55835	163.19304	-3709.28857	995.70776	67.58926	-3806.30640	662.41980	17.64222	-3816.95605	620.54498	19.39150	-3745.51392	639.99933	19.15891	-3764.80957	600.80615	22.89474	-3811.96582	534.41437	31.14970	-3807.16992	517.21954	143.16129	-3708.55859	492.77139	28.53730	0.00000	0.00000	0.00000	-3753.13867	450.67529	24.91612	0.00000	0.00000	0.00000	0.00000	0.00000	0.00000	-3543.26855	237.84619	160.85252	-3444.62305	274.09723	140.44527	-3582.62646	108.76913	129.41243	-3587.40405	120.03883	79.93320	-3528.35693	131.80403	28.29494
1199	9.98333	-3561.65308	1004.14349	245.01733	-3746.28296	1021.08173	299.34314	-3692.09619	622.47321	334.65717	-3704.38037	575.40753	330.04538	-3753.38037	627.95935	342.57202	-3760.49951	585.61188	336.76395	0.00000	0.00000	0.00000	-3735.24878	509.48196	327.24237	-3684.47852	407.78656	340.03806	-3676.66211	362.94263	331.22073	-3746.12671	401.39212	336.37338	-3731.67944	354.08716	330.27835	-3666.88574	102.16917	259.66748	-3701.15747	125.23337	170.54088	-3608.82275	69.74718	202.69063	-3777.94629	49.66310	290.92059	-3856.33496	70.50751	226.50616	-3816.62061	57.75555	179.48337	-3558.50757	1011.62994	162.44733	-3716.13257	997.33411	67.89973	-3817.46216	666.60126	16.95366	-3828.58032	624.86713	18.50064	-3756.84937	643.54083	17.29605	-3778.10693	604.83649	19.89427	-3823.65820	537.86975	30.37129	-3818.66895	520.48193	141.59390	-3720.04907	495.01630	29.68895	0.00000	0.00000	0.00000	-3766.99072	451.51831	23.97854	0.00000	0.00000	0.00000	0.00000	0.00000	0.00000	-3563.87354	232.91417	157.14392	-3464.32373	265.59119	136.72279	-3608.25146	105.53513	125.43908	-3613.03906	117.16128	76.18578	-3553.70923	127.36447	24.47130
1200	9.99167	-3567.65674	1004.90253	244.16876	-3751.72729	1021.69641	299.65198	-3693.94800	623.07904	334.84723	-3705.61060	575.81097	330.42120	-3755.26123	628.11340	343.13785	0.00000	0.00000	0.00000	0.00000	0.00000	0.00000	-3735.88110	509.49805	327.93326	-3684.71411	407.84131	340.40250	-3676.73926	363.00275	331.53833	-3746.37939	401.23608	336.90164	-3731.89209	354.06638	330.74020	-3666.90234	102.19175	259.69238	-3701.15063	125.29221	170.60780	-3608.84424	69.80851	202.64928	-3777.98145	49.70765	290.98593	-3856.28931	70.51107	226.53345	-3816.60083	57.77334	179.51004	0.00000	0.00000	0.00000	-3722.96826	998.85803	68.10229	-3828.19409	670.61176	16.28794	-3839.88867	629.01141	17.61497	-3767.96240	646.91974	15.36725	-3789.26636	608.32349	18.35244	-3837.48828	543.34027	28.70487	-3829.90137	523.50903	140.13106	-3732.82617	495.40012	27.90183	0.00000	0.00000	0.00000	-3780.93750	452.71002	22.60294	0.00000	0.00000	0.00000	0.00000	0.00000	0.00000	-3584.63501	227.58833	153.41946	-3483.98877	256.46872	132.06702	-3634.10327	102.08691	121.72622	-3639.23584	114.09657	72.41916	-3579.72168	122.24279	20.29191
1201	10.00000	-3573.29712	1005.50854	243.15289	-3757.18896	1022.20221	299.93726	-3695.64990	623.55743	335.07220	-3707.02686	576.34033	330.89694	-3756.84082	628.09766	343.73203	0.00000	0.00000	0.00000	0.00000	0.00000	0.00000	-3736.40259	509.30902	328.51208	-3684.65625	407.32138	339.42877	-3676.86548	363.00394	331.82562	-3746.59497	401.08972	337.44147	-3731.83789	353.89288	331.36743	-3666.87500	102.20356	259.71060	-3701.16187	125.32080	170.64172	-3608.91406	69.82098	202.61714	-3777.93042	49.66593	291.03290	-3856.27075	70.52263	226.55374	-3816.58154	57.79629	179.54433	0.00000	0.00000	0.00000	-3729.70117	1000.19446	68.37830	-3838.80884	674.39276	15.68515	-3850.91968	632.89172	16.87671	-3778.75317	649.93756	13.66398	-3800.43774	611.49634	16.69105	-3848.95215	546.67261	27.72766	-3840.82349	526.29108	138.76912	-3745.28979	495.38074	26.04535	0.00000	0.00000	0.00000	0.00000	0.00000	0.00000	0.00000	0.00000	0.00000	0.00000	0.00000	0.00000	-3605.83496	221.78877	149.56088	-3504.19385	246.56787	127.64174	-3660.74683	98.31823	117.85725	-3665.87109	110.90128	68.60569	-3606.40967	116.94644	16.01629
1202	10.00833	-3578.92212	1005.92993	242.22595	-3762.57251	1022.61462	300.16467	-3697.30835	624.21222	335.27933	-3708.28882	576.82391	331.30673	-3758.33276	627.82819	344.35318	-3759.71094	582.30756	336.02017	0.00000	0.00000	0.00000	-3737.15430	509.25891	329.32620	-3684.75659	407.35178	339.73871	-3676.80347	363.08615	332.05530	-3746.75781	400.85065	338.09167	-3731.83911	353.75061	331.90775	-3666.86157	102.20574	259.69067	-3701.10742	125.31817	170.71143	-3608.87842	69.86373	202.61740	-3777.84277	49.58645	291.08328	-3856.24243	70.53874	226.59717	-3816.57104	57.83591	179.58908	-3577.17896	1014.04175	159.85284	-3736.46167	1001.43970	68.54723	-3849.02051	677.86157	15.18799	-3861.60938	636.60760	16.24592	-3789.26270	652.81750	12.01298	-3811.40601	614.52277	15.11193	-3860.09473	549.82349	26.85170	-3851.37671	528.75751	137.35193	-3757.52197	494.95230	24.29918	0.00000	0.00000	0.00000	0.00000	0.00000	0.00000	0.00000	0.00000	0.00000	0.00000	0.00000	0.00000	-3627.21973	215.59216	145.56186	-3524.53345	236.65211	122.88527	-3687.82349	94.70399	113.92749	-3693.00317	107.70277	64.79800	-3633.49414	111.30605	11.70341
1203	10.01667	-3584.63208	1006.26062	241.18446	-3767.86743	1022.85785	300.40201	-3698.98218	624.66895	335.51114	-3709.62769	577.16998	331.71909	-3760.20850	628.01782	344.85544	-3761.02563	582.21393	336.68347	0.00000	0.00000	0.00000	-3737.81470	509.12378	329.96609	-3684.87061	407.37607	339.95654	-3676.82593	363.16428	332.24881	-3746.84229	400.57391	338.63354	-3731.64404	353.51978	332.45300	-3666.86157	102.18870	259.73038	-3701.09839	125.36089	170.77357	-3608.82080	69.88651	202.60124	-3777.81494	49.53482	291.15631	-3856.20361	70.57246	226.65373	-3816.54346	57.85756	179.63034	0.00000	0.00000	0.00000	-3743.11401	1002.46655	68.78114	-3858.88281	681.03241	14.82720	-3871.69873	639.91632	15.68565	-3799.45410	655.38049	10.64021	-3821.95508	617.35712	13.78684	-3869.78369	551.54810	25.95978	-3861.52612	530.80365	136.23830	-3769.48096	494.12677	22.45165	0.00000	0.00000	0.00000	-3822.46631	460.05655	16.01990	-3792.73169	424.41644	15.16906	0.00000	0.00000	0.00000	-3649.27881	209.33376	141.51344	-3544.97583	226.40651	118.11212	-3715.34277	91.09093	109.85915	-3720.50122	104.57150	60.84447	-3661.18970	105.86682	7.33218
1204	10.02500	-3590.25049	1006.38782	240.05562	-3773.16724	1023.00873	300.50488	-3700.77295	625.16400	335.73239	-3711.07935	577.58752	332.16510	-3762.01685	628.02832	345.44839	-3762.57153	582.27576	337.45828	0.00000	0.00000	0.00000	-3738.34326	508.94418	330.54135	-3684.94067	407.34213	340.17969	-3676.74023	363.25311	332.40533	-3747.06299	400.33179	339.13083	-3731.62744	353.35559	332.97104	-3666.86597	102.20760	259.71213	-3701.06714	125.35996	170.79698	-3606.18311	70.38215	201.75522	-3777.82910	49.54445	291.20541	-3856.16260	70.57120	226.68719	-3816.52881	57.87670	179.66246	-3589.55957	1014.84558	157.86873	-3749.90186	1003.35114	68.88272	-3868.43359	683.91455	14.46004	-3881.53223	642.85040	15.25682	-3809.12793	657.51233	9.44349	-3831.99048	619.91040	12.40309	-3879.95947	554.07379	25.26550	-3871.31323	532.56470	135.08795	-3781.15649	493.07285	20.38349	0.00000	0.00000	0.00000	-3835.64209	460.97516	14.39537	-3807.34399	424.25964	13.19537	0.00000	0.00000	0.00000	-3671.95825	202.85179	137.28802	-3567.90137	215.11023	112.38271	-3743.20947	87.63429	105.53496	-3748.22949	101.52127	56.66713	-3689.15332	100.42127	2.70856
1205	10.03333	-3595.97852	1006.59784	239.05901	-3778.38989	1023.03137	300.62738	-3702.65967	625.59222	335.96045	-3712.33154	577.91962	332.50800	-3763.77808	627.95642	345.96277	-3763.86304	582.18799	338.05774	0.00000	0.00000	0.00000	-3739.19946	508.91113	331.26056	-3685.45459	408.00131	341.83365	-3676.76123	363.29376	332.58658	-3747.25000	400.01801	339.66113	-3731.74316	353.19540	333.44952	-3666.85938	102.19343	259.71298	-3701.07593	125.36745	170.80818	-3606.16504	70.40549	201.73215	-3777.78906	49.51268	291.24875	-3856.12061	70.56437	226.71292	-3816.49243	57.85190	179.68048	-3595.50928	1015.07776	156.87007	-3756.54688	1003.94012	68.99969	-3877.48828	686.30908	14.18352	-3890.81372	645.34827	14.93903	-3818.59692	659.52985	8.23940	-3841.77710	621.82587	11.56015	-3889.97070	556.43256	24.60155	-3880.46899	533.80499	134.08641	-3792.77637	491.60046	18.35137	0.00000	0.00000	0.00000	-3848.69189	461.60657	12.85216	-3821.76709	423.76862	11.28749	0.00000	0.00000	0.00000	-3694.77856	195.99631	132.99472	-3590.43994	203.85004	107.53103	-3771.68848	84.36171	101.02988	-3776.47754	98.65083	52.29242	-3717.50195	95.14191	-2.00174
